<mxfile host="app.diagrams.net" agent="Mozilla/5.0 (Windows NT 10.0; Win64; x64) AppleWebKit/537.36 (KHTML, like Gecko) Chrome/131.0.0.0 Safari/537.36 Edg/131.0.0.0" version="24.8.9">
  <diagram name="Page-1" id="CpLNWT50UT7AW_Q6mbYD">
    <mxGraphModel dx="1753" dy="498" grid="1" gridSize="10" guides="1" tooltips="1" connect="1" arrows="1" fold="1" page="1" pageScale="1" pageWidth="850" pageHeight="1100" math="0" shadow="0">
      <root>
        <mxCell id="0" />
        <mxCell id="1" parent="0" />
        <mxCell id="Tk7NZc04kqwpoQ_mWFd_-7" style="edgeStyle=orthogonalEdgeStyle;rounded=0;orthogonalLoop=1;jettySize=auto;html=1;entryX=0.5;entryY=0;entryDx=0;entryDy=0;" edge="1" parent="1" source="Tk7NZc04kqwpoQ_mWFd_-1" target="Tk7NZc04kqwpoQ_mWFd_-4">
          <mxGeometry relative="1" as="geometry" />
        </mxCell>
        <mxCell id="Tk7NZc04kqwpoQ_mWFd_-1" value="&lt;font data-font-src=&quot;https://fonts.googleapis.com/css?family=Sarabun&quot; face=&quot;Sarabun&quot;&gt;Start&lt;/font&gt;" style="ellipse;whiteSpace=wrap;html=1;" vertex="1" parent="1">
          <mxGeometry x="-530.0000000000001" y="50" width="130" height="30" as="geometry" />
        </mxCell>
        <mxCell id="Tk7NZc04kqwpoQ_mWFd_-8" style="edgeStyle=orthogonalEdgeStyle;rounded=0;orthogonalLoop=1;jettySize=auto;html=1;entryX=0.5;entryY=0;entryDx=0;entryDy=0;" edge="1" parent="1" source="Tk7NZc04kqwpoQ_mWFd_-4" target="Tk7NZc04kqwpoQ_mWFd_-5">
          <mxGeometry relative="1" as="geometry" />
        </mxCell>
        <mxCell id="Tk7NZc04kqwpoQ_mWFd_-4" value="กำหนดตัวแปร a" style="rounded=0;whiteSpace=wrap;html=1;" vertex="1" parent="1">
          <mxGeometry x="-552.25" y="110" width="174.5" height="40" as="geometry" />
        </mxCell>
        <mxCell id="Tk7NZc04kqwpoQ_mWFd_-10" style="edgeStyle=orthogonalEdgeStyle;rounded=0;orthogonalLoop=1;jettySize=auto;html=1;entryX=0.5;entryY=0;entryDx=0;entryDy=0;" edge="1" parent="1" source="Tk7NZc04kqwpoQ_mWFd_-5" target="Tk7NZc04kqwpoQ_mWFd_-9">
          <mxGeometry relative="1" as="geometry" />
        </mxCell>
        <mxCell id="Tk7NZc04kqwpoQ_mWFd_-5" value="กำหนดตัวแปร b" style="rounded=0;whiteSpace=wrap;html=1;" vertex="1" parent="1">
          <mxGeometry x="-552.25" y="180" width="174.5" height="40" as="geometry" />
        </mxCell>
        <mxCell id="Tk7NZc04kqwpoQ_mWFd_-12" value="" style="edgeStyle=orthogonalEdgeStyle;rounded=0;orthogonalLoop=1;jettySize=auto;html=1;" edge="1" parent="1" source="Tk7NZc04kqwpoQ_mWFd_-9" target="Tk7NZc04kqwpoQ_mWFd_-11">
          <mxGeometry relative="1" as="geometry" />
        </mxCell>
        <mxCell id="Tk7NZc04kqwpoQ_mWFd_-9" value="กำหนดตัวแปร c" style="rounded=0;whiteSpace=wrap;html=1;" vertex="1" parent="1">
          <mxGeometry x="-552.25" y="250" width="174.5" height="40" as="geometry" />
        </mxCell>
        <mxCell id="Tk7NZc04kqwpoQ_mWFd_-14" value="" style="edgeStyle=orthogonalEdgeStyle;rounded=0;orthogonalLoop=1;jettySize=auto;html=1;" edge="1" parent="1" source="Tk7NZc04kqwpoQ_mWFd_-11" target="Tk7NZc04kqwpoQ_mWFd_-13">
          <mxGeometry relative="1" as="geometry" />
        </mxCell>
        <mxCell id="Tk7NZc04kqwpoQ_mWFd_-11" value="กรอกค่าตัวแปร a&amp;nbsp;" style="shape=parallelogram;perimeter=parallelogramPerimeter;whiteSpace=wrap;html=1;fixedSize=1;" vertex="1" parent="1">
          <mxGeometry x="-530.0000000000001" y="320" width="130" height="40" as="geometry" />
        </mxCell>
        <mxCell id="Tk7NZc04kqwpoQ_mWFd_-16" value="" style="edgeStyle=orthogonalEdgeStyle;rounded=0;orthogonalLoop=1;jettySize=auto;html=1;" edge="1" parent="1" source="Tk7NZc04kqwpoQ_mWFd_-13" target="Tk7NZc04kqwpoQ_mWFd_-15">
          <mxGeometry relative="1" as="geometry" />
        </mxCell>
        <mxCell id="Tk7NZc04kqwpoQ_mWFd_-13" value="กรอกค่าตัวแปร b&amp;nbsp;" style="shape=parallelogram;perimeter=parallelogramPerimeter;whiteSpace=wrap;html=1;fixedSize=1;" vertex="1" parent="1">
          <mxGeometry x="-530.0000000000001" y="390" width="130" height="40" as="geometry" />
        </mxCell>
        <mxCell id="Tk7NZc04kqwpoQ_mWFd_-18" value="" style="edgeStyle=orthogonalEdgeStyle;rounded=0;orthogonalLoop=1;jettySize=auto;html=1;" edge="1" parent="1" source="Tk7NZc04kqwpoQ_mWFd_-15" target="Tk7NZc04kqwpoQ_mWFd_-17">
          <mxGeometry relative="1" as="geometry" />
        </mxCell>
        <mxCell id="Tk7NZc04kqwpoQ_mWFd_-15" value="กรอกค่าตัวแปร c" style="shape=parallelogram;perimeter=parallelogramPerimeter;whiteSpace=wrap;html=1;fixedSize=1;" vertex="1" parent="1">
          <mxGeometry x="-530.0000000000001" y="450" width="130" height="40" as="geometry" />
        </mxCell>
        <mxCell id="Tk7NZc04kqwpoQ_mWFd_-20" value="" style="edgeStyle=orthogonalEdgeStyle;rounded=0;orthogonalLoop=1;jettySize=auto;html=1;" edge="1" parent="1" source="Tk7NZc04kqwpoQ_mWFd_-17" target="Tk7NZc04kqwpoQ_mWFd_-19">
          <mxGeometry relative="1" as="geometry" />
        </mxCell>
        <mxCell id="Tk7NZc04kqwpoQ_mWFd_-17" value="คำนวน a + b + c" style="rounded=0;whiteSpace=wrap;html=1;" vertex="1" parent="1">
          <mxGeometry x="-552.25" y="520" width="174.5" height="40" as="geometry" />
        </mxCell>
        <mxCell id="Tk7NZc04kqwpoQ_mWFd_-22" value="" style="edgeStyle=orthogonalEdgeStyle;rounded=0;orthogonalLoop=1;jettySize=auto;html=1;" edge="1" parent="1" source="Tk7NZc04kqwpoQ_mWFd_-19" target="Tk7NZc04kqwpoQ_mWFd_-21">
          <mxGeometry relative="1" as="geometry" />
        </mxCell>
        <mxCell id="Tk7NZc04kqwpoQ_mWFd_-19" value="แสดงค่าผลรวม" style="shape=parallelogram;perimeter=parallelogramPerimeter;whiteSpace=wrap;html=1;fixedSize=1;" vertex="1" parent="1">
          <mxGeometry x="-530.0000000000001" y="600" width="130" height="40" as="geometry" />
        </mxCell>
        <mxCell id="Tk7NZc04kqwpoQ_mWFd_-21" value="&lt;font face=&quot;Sarabun&quot;&gt;End&lt;/font&gt;" style="ellipse;whiteSpace=wrap;html=1;" vertex="1" parent="1">
          <mxGeometry x="-530.0000000000001" y="670" width="130" height="30" as="geometry" />
        </mxCell>
      </root>
    </mxGraphModel>
  </diagram>
</mxfile>
